<?xml version="1.0" encoding="UTF-8" standalone="no"?>
<!DOCTYPE svg PUBLIC "-//W3C//DTD SVG 1.1//EN" "http://www.w3.org/Graphics/SVG/1.1/DTD/svg11.dtd">
<svg width="100%" height="100%" viewBox="0 0 250 250" version="1.1" xmlns="http://www.w3.org/2000/svg" xmlns:xlink="http://www.w3.org/1999/xlink" xml:space="preserve" xmlns:serif="http://www.serif.com/" style="fill-rule:evenodd;clip-rule:evenodd;stroke-linecap:round;stroke-linejoin:round;stroke-miterlimit:1.5;">
    <g transform="matrix(2.10227,0,0,2.10227,-27.6387,-262.706)">
        <g transform="matrix(1,0,0,1,-17.7346,-6.29291)">
            <circle cx="90.103" cy="191.362" r="56.636" style="fill:rgb(241,217,139);stroke:black;stroke-width:3.81px;"/>
        </g>
        <g transform="matrix(1.18475,0,0,1.46261,-16.6479,-77.3767)">
            <path d="M114.416,164.974C114.416,161.698 111.133,159.039 107.089,159.039L84.845,159.039C80.8,159.039 77.517,161.698 77.517,164.974L77.517,176.845C77.517,180.121 80.8,182.78 84.845,182.78L107.089,182.78C111.133,182.78 114.416,180.121 114.416,176.845L114.416,164.974Z" style="fill:none;stroke:black;stroke-width:1.43px;"/>
        </g>
        <g transform="matrix(1.21018,0,0,1.46261,-67.8049,-77.1067)">
            <path d="M114.416,164.974C114.416,161.698 111.202,159.039 107.243,159.039L84.691,159.039C80.731,159.039 77.517,161.698 77.517,164.974L77.517,176.845C77.517,180.121 80.731,182.78 84.691,182.78L107.243,182.78C111.202,182.78 114.416,180.121 114.416,176.845L114.416,164.974Z" style="fill:none;stroke:black;stroke-width:1.42px;"/>
        </g>
        <g transform="matrix(2.59081,0,0,2.59081,-76.1609,-286.313)">
            <circle cx="47.483" cy="177.059" r="5.721"/>
        </g>
        <g transform="matrix(1.57769,0,0,1.57769,-57.4701,-106.435)">
            <path d="M107.551,172.199C107.551,172.199 98.398,171.477 93.106,174.91C87.815,178.342 86.957,180.78 86.957,180.78C86.957,180.78 92.747,177.219 98.684,177.634C105.572,178.115 107.265,181.355 107.265,181.355" style="fill:none;stroke:black;stroke-width:2.41px;"/>
        </g>
    </g>
</svg>
